<svg width="30" height="24" viewBox="0 0 30 24" fill="none" xmlns="http://www.w3.org/2000/svg">
<path d="M20.5876 17.6164V18.9054H6.69724C6.3309 18.9054 5.96456 19.0281 5.6898 19.243L2.42328 21.7903V1.9335H20.5876V7.7954L22.5109 5.61637V1.65729C22.5109 0.736573 21.7477 0 20.8623 0H2.14853C1.23268 0 0.5 0.736573 0.5 1.65729V22.312C0.5 22.9565 0.835811 23.509 1.41585 23.8159C1.66007 23.9386 1.9043 24 2.14853 24C2.48434 24 2.85068 23.8772 3.15596 23.6624L6.69724 20.8389H20.8623C21.7782 20.8389 22.5109 20.0716 22.5109 19.1816V15.7749L21.2897 17.156C21.1066 17.3402 20.8623 17.5243 20.5876 17.6164Z" fill="white"/>
<path d="M6.11631 6.59798H16.8623C17.4118 6.59798 17.8392 6.16832 17.8392 5.61589C17.8392 5.09415 17.4118 4.63379 16.8623 4.63379H6.11631C5.5668 4.63379 5.1394 5.09415 5.1394 5.61589C5.16993 6.16832 5.59733 6.59798 6.11631 6.59798Z" fill="white"/>
<path d="M17.8392 10.2809C17.8392 9.75919 17.4118 9.29883 16.8623 9.29883H6.11631C5.5668 9.29883 5.1394 9.75919 5.1394 10.2809C5.1394 10.8334 5.5668 11.263 6.11631 11.263H16.8623C17.4118 11.263 17.8392 10.8334 17.8392 10.2809Z" fill="white"/>
<path d="M5.17041 14.9465C5.17041 15.499 5.59781 15.9286 6.14731 15.9286H15.4279L15.7637 13.9951H6.11679C5.59781 13.9951 5.17041 14.4248 5.17041 14.9465Z" fill="white"/>
<path d="M24.6584 5.52983L18.9331 11.9521L21.6612 14.4101L27.3865 7.98777L24.6584 5.52983Z" fill="white"/>
<path d="M29.3185 5.00296L27.4257 3.28429C27.212 3.06946 26.8457 3.10015 26.6625 3.31499L25.533 4.60399L28.25 7.05923L29.3795 5.77023C29.5627 5.55539 29.5322 5.18711 29.3185 5.00296Z" fill="white"/>
<path d="M17.5658 16.9414L19.8859 16.2662C19.9775 16.2355 20.0691 16.1741 20.1302 16.1127L20.8018 15.3761L18.0848 12.9209L17.4131 13.6575C17.3521 13.7495 17.291 13.8416 17.291 13.9337L16.8942 16.3275C16.8331 16.7265 17.1994 17.0334 17.5658 16.9414Z" fill="white"/>
</svg>
