<?xml version="1.0" encoding="utf-8"?><svg viewBox="0 0 30 43" xmlns="http://www.w3.org/2000/svg" xmlns:xlink="http://www.w3.org/1999/xlink"><style>:root>svg{display:none}:root>svg:target{display:block}</style><svg fill="none" viewBox="0 0 30 24" id="callback" xmlns="http://www.w3.org/2000/svg"><path d="M20.588 17.616v1.29H6.698a1.66 1.66 0 00-1.008.337L2.423 21.79V1.933h18.165v5.862l1.923-2.179V1.657C22.51.737 21.748 0 20.862 0H2.15C1.233 0 .5.737.5 1.657v20.655c0 .644.336 1.197.916 1.504.244.123.488.184.733.184.335 0 .702-.123 1.007-.338l3.541-2.823h14.165c.916 0 1.649-.767 1.649-1.657v-3.407l-1.221 1.381a1.87 1.87 0 01-.702.46z" fill="#fff"/><path d="M6.116 6.598h10.746c.55 0 .977-.43.977-.982a.986.986 0 00-.977-.982H6.116c-.55 0-.977.46-.977.982.03.552.458.982.977.982zM17.84 10.28a.986.986 0 00-.978-.981H6.116c-.55 0-.977.46-.977.982 0 .552.428.982.977.982h10.746c.55 0 .977-.43.977-.982zM5.17 14.947c0 .552.428.982.977.982h9.28l.337-1.934H6.117a.954.954 0 00-.947.952zM24.658 5.53l-5.725 6.422 2.728 2.458 5.726-6.422-2.729-2.458zM29.319 5.003l-1.893-1.719a.532.532 0 00-.763.031l-1.13 1.289 2.717 2.455 1.13-1.289a.57.57 0 00-.061-.767zM17.566 16.941l2.32-.675a.665.665 0 00.244-.153l.672-.737-2.717-2.455-.672.737c-.06.091-.122.184-.122.276l-.397 2.394a.546.546 0 00.672.613z" fill="#fff"/></svg><svg fill="none" viewBox="0 0 25 24" id="check" xmlns="http://www.w3.org/2000/svg"><circle cx="12.5" cy="12" r="11.5" stroke="#127EB2"/><path d="M8.5 11.667L11.677 15 17.5 9" stroke="#127EB2"/></svg><svg fill="none" viewBox="0 0 11 43" id="colon" xmlns="http://www.w3.org/2000/svg"><circle cx="5.348" cy="5.229" r="5.017" fill="#93989C"/><circle cx="5.348" cy="37.491" r="5.017" fill="#93989C"/></svg></svg>