<svg width="187" height="24" fill="none" xmlns="http://www.w3.org/2000/svg"><path d="M174.279 6.107h-7.641c-1.288.086-1.632.386-1.632 1.932v4.293h9.273V6.107zm4.036-3.434V21.39h-4.036v-5.409h-9.273v5.366h-4.078V6.708c0-2.576 1.03-4.035 4.078-4.035h13.309zM156.85 6.708V16.84c0 3.22-1.803 4.55-4.079 4.55h-12.836V2.673h12.879c3.435 0 4.036 2.189 4.036 4.035zm-4.122 1.116c0-1.03-.644-1.717-1.717-1.717h-6.998v11.677h6.998c1.588-.086 1.717-1.03 1.717-1.803V7.824zM57.122 2.673h4.079v7.384h9.101V2.673h4.078v18.674h-4.078v-7.641h-9.101v7.641h-4.079V2.673zm24.213 0l5.066 7.641 5.023-7.641h4.937l-7.9 11.934v6.74h-4.078v-6.74L76.398 2.673h4.937zm37.865 0h13.093c1.846 0 3.692.257 3.607 4.035v14.64h-4.079V8.037c0-1.588-.172-1.931-1.459-1.931h-7.127V21.39h-4.078V2.673h.043zm67.272 18.674h-4.079V2.673h4.079v18.674zm-88.05 0h13.093c2.619 0 3.692-.773 3.606-4.507V2.673h-4.078v13.35c0 1.59-.215 1.804-1.46 1.804h-7.126V2.673h-4.079v18.674h.043zM40.636 3.746c-1.159-.601-2.404-1.116-3.649-1.589C31.364.226 24.753-.46 18.485.311c-5.796.816-11.42 2.19-15.798 6.182C.583 8.468-.662 11.387.368 14.221c1.331 3.434 4.894 5.71 8.114 7.04 9.445 3.821 22.324 3.692 31.468-.686 3.134-1.589 6.654-4.208 7.084-7.986.343-4.078-3.22-7.126-6.397-8.843zM19.472 5.377c.773-1.545 2.19-3.348 4.122-3.391 4.207-.043 8.114.6 11.891 1.631.215.129.473.172.644.386.13.258-.128.43-.257.601-3.091 2.405-6.611 3.778-10.26 4.937-1.847.43-3.693 1.245-5.753.816a1.859 1.859 0 01-1.16-.901c-.515-1.417.172-2.877.773-4.079zM6.98 17.956c-.473.43-.945-.129-1.374-.344-2.19-1.46-4.164-3.777-3.606-6.525.901-3.563 4.593-5.495 7.684-6.783 1.803-.687 3.735-1.245 5.71-1.546.215 0 .472-.042.601.172l-.043.215c-3.95 4.465-6.525 9.66-8.972 14.81zm20.048 1.717c-.901 1.374-2.361 2.576-4.164 2.404a42.126 42.126 0 01-11.505-1.76c-.172-.043-.344-.129-.43-.3-.086-.215.043-.387.172-.559 3.306-2.661 7.212-3.906 11.119-5.194 1.46-.43 3.005-.859 4.636-.644a1.885 1.885 0 011.589 1.159c.343 1.846-.601 3.391-1.417 4.894zm17.988-6.697c-.944 3.692-4.937 5.667-8.157 6.912-1.76.6-3.52 1.202-5.409 1.373-.129 0-.3 0-.343-.171l.043-.215c2.704-3.048 4.765-6.482 6.568-9.96.815-1.588 1.631-3.177 2.318-4.765.086-.129.215-.172.343-.215.645.043 1.117.558 1.675.945 1.846 1.502 3.52 3.606 2.962 6.096z" fill="#fff"/></svg>