<svg width="152" height="20" fill="none" xmlns="http://www.w3.org/2000/svg"><path d="M141.419 4.938h-6.179c-1.041.069-1.319.312-1.319 1.562v3.47h7.498V4.938zm3.263-2.777v15.134h-3.263v-4.374h-7.498v4.34h-3.298V5.424c0-2.083.833-3.263 3.298-3.263h10.761zm-17.357 3.263v8.192c0 2.603-1.457 3.68-3.297 3.68h-10.379V2.16h10.413c2.777 0 3.263 1.77 3.263 3.263zm-3.332.902c0-.833-.521-1.388-1.388-1.388h-5.659v9.442h5.659c1.284-.07 1.388-.834 1.388-1.459V6.327zM46.688 2.161h3.298v5.97h7.359v-5.97h3.297v15.1h-3.297v-6.18h-7.36v6.18h-3.297V2.16zm19.578 0l4.096 6.178 4.061-6.178h3.992l-6.387 9.65v5.45h-3.297v-5.45l-6.457-9.65h3.992zm30.616 0h10.588c1.492 0 2.985.208 2.916 3.263V17.26h-3.298V6.5c0-1.285-.139-1.562-1.18-1.562h-5.763v12.357h-3.297V2.161h.034zm54.395 15.1h-3.298V2.16h3.298v15.1zm-71.195 0h10.587c2.117 0 2.985-.625 2.916-3.645V2.16h-3.298v10.795c0 1.285-.174 1.458-1.18 1.458h-5.763V2.161h-3.297v15.1h.035zM33.358 3.028c-.937-.486-1.944-.902-2.95-1.284C25.86.182 20.515-.373 15.447.251 10.76.911 6.213 2.021 2.672 5.25.972 6.847-.035 9.207.798 11.498c1.076 2.777 3.957 4.617 6.56 5.693 7.637 3.09 18.051 2.986 25.445-.555 2.534-1.285 5.38-3.402 5.728-6.457.277-3.297-2.604-5.762-5.173-7.15zm-17.113 1.32c.625-1.25 1.77-2.708 3.332-2.743 3.402-.035 6.561.486 9.616 1.32.173.103.382.138.52.312.105.208-.104.347-.208.486-2.5 1.944-5.345 3.054-8.296 3.992-1.493.347-2.985 1.006-4.652.66a1.503 1.503 0 01-.937-.73c-.416-1.145.139-2.326.625-3.297zM6.144 14.518c-.382.347-.764-.104-1.111-.277-1.77-1.18-3.367-3.055-2.916-5.277.729-2.88 3.714-4.443 6.214-5.484 1.457-.556 3.02-1.007 4.616-1.25.174 0 .382-.035.486.139l-.034.173c-3.194 3.61-5.277 7.81-7.255 11.976zm16.21 1.389c-.729 1.11-1.909 2.083-3.367 1.944a34.062 34.062 0 01-9.303-1.424c-.139-.034-.277-.104-.347-.242-.07-.174.035-.313.139-.452 2.673-2.152 5.832-3.159 8.99-4.2 1.18-.347 2.43-.694 3.75-.52a1.523 1.523 0 011.284.937c.278 1.492-.486 2.742-1.146 3.957zM36.9 10.492c-.764 2.985-3.992 4.582-6.595 5.588-1.424.486-2.847.972-4.374 1.111-.104 0-.243 0-.278-.139l.035-.173c2.187-2.465 3.853-5.242 5.31-8.054.66-1.284 1.32-2.568 1.875-3.853.07-.104.174-.139.278-.173.52.034.903.451 1.354.763 1.492 1.215 2.846 2.916 2.395 4.93z" fill="#032D5D"/></svg>