<svg width="187" height="24" viewBox="0 0 187 24" fill="none" xmlns="http://www.w3.org/2000/svg">
<path d="M174.279 6.10701H166.638C165.35 6.19288 165.006 6.49339 165.006 8.03888V12.3319H174.279V6.10701ZM178.315 2.67259V21.3902H174.279V15.981H165.006V21.3473H160.928V6.70804C160.928 4.13222 161.958 2.67259 165.006 2.67259H178.315ZM156.85 6.70804V16.8396C156.85 20.0594 155.047 21.3902 152.771 21.3902H139.935V2.67259H152.814C156.249 2.67259 156.85 4.86203 156.85 6.70804ZM152.728 7.82423C152.728 6.7939 152.084 6.10701 151.011 6.10701H144.013V17.7841H151.011C152.599 17.6982 152.728 16.7537 152.728 15.981V7.82423ZM57.1223 2.67259H61.2007V10.0566H70.302V2.67259H74.3803V21.3473H70.302V13.7057H61.2007V21.3473H57.1223V2.67259ZM81.3351 2.67259L86.4008 10.3142L91.4237 2.67259H96.3607L88.4615 14.6072V21.3473H84.3831V14.6072L76.3981 2.67259H81.3351ZM119.2 2.67259H132.293C134.139 2.67259 135.985 2.93017 135.9 6.70804V21.3473H131.821V8.03888C131.821 6.45046 131.649 6.10701 130.362 6.10701H123.235V21.3902H119.157V2.67259H119.2ZM186.472 21.3473H182.393V2.67259H186.472V21.3473ZM98.4214 21.3473H111.515C114.134 21.3473 115.207 20.5745 115.121 16.8396V2.67259H111.043V16.0239C111.043 17.6124 110.828 17.827 109.583 17.827H102.457V2.67259H98.3784V21.3473H98.4214ZM40.6371 3.74585C39.478 3.14482 38.233 2.62966 36.988 2.15742C31.3641 0.225556 24.7528 -0.46133 18.485 0.311416C12.6894 1.12709 7.06554 2.50086 2.68664 6.49339C0.583051 8.46818 -0.661929 11.3874 0.3684 14.2209C1.69924 17.6553 5.26246 19.9306 8.48224 21.2614C17.9269 25.0822 30.806 24.9534 39.9502 20.5745C43.0841 18.9861 46.6044 16.3674 47.0337 12.5895C47.3772 8.51111 43.8139 5.46306 40.6371 3.74585ZM19.4724 5.3772C20.2452 3.83171 21.6619 2.02863 23.5937 1.9857C27.8009 1.94277 31.7076 2.58673 35.4854 3.61705C35.7001 3.74585 35.9577 3.78878 36.1294 4.00343C36.2582 4.26101 36.0006 4.43273 35.8718 4.60445C32.7808 7.00855 29.2605 8.38232 25.6115 9.54144C23.7654 9.97075 21.9194 10.7864 19.8588 10.3571C19.3866 10.2283 18.9572 9.92782 18.6997 9.45558C18.1845 8.03888 18.8714 6.57925 19.4724 5.3772ZM6.97968 17.9558C6.50744 18.3851 6.03521 17.827 5.6059 17.6124C3.41646 16.1527 1.44166 13.8345 1.99975 11.0869C2.90129 7.52372 6.5933 5.59185 9.68429 4.30394C11.4874 3.61705 13.4192 3.05896 15.394 2.75845C15.6087 2.75845 15.8663 2.71552 15.9951 2.93017L15.9521 3.14482C12.0025 7.60958 9.42671 12.8041 6.97968 17.9558ZM27.0282 19.673C26.1266 21.0468 24.667 22.2488 22.8639 22.0771C18.8714 22.0342 14.9647 21.3902 11.3586 20.317C11.1869 20.274 11.0151 20.1882 10.9293 20.0164C10.8434 19.8018 10.9722 19.6301 11.101 19.4584C14.4066 16.7967 18.3133 15.5517 22.22 14.2638C23.6796 13.8345 25.2251 13.4052 26.8564 13.6198C27.5433 13.6628 28.1873 14.135 28.4449 14.7789C28.7883 16.625 27.8438 18.1704 27.0282 19.673ZM45.016 12.9759C44.0715 16.6679 40.079 18.6427 36.8592 19.8877C35.0991 20.4887 33.3389 21.0897 31.45 21.2614C31.3212 21.2614 31.1495 21.2614 31.1065 21.0897L31.1495 20.8751C33.8541 17.827 35.9147 14.3926 37.7178 10.9152C38.5335 9.32679 39.3492 7.73837 40.0361 6.14995C40.1219 6.02115 40.2507 5.97822 40.3795 5.93529C41.0235 5.97822 41.4957 6.49339 42.0538 6.87976C43.8998 8.38232 45.5741 10.4859 45.016 12.9759Z" fill="white"/>
</svg>
