<svg width="152" height="20" viewBox="0 0 152 20" fill="none" xmlns="http://www.w3.org/2000/svg">
<path d="M141.419 4.93762H135.24C134.199 5.00704 133.921 5.25003 133.921 6.49969V9.97095H141.419V4.93762ZM144.682 2.16061V17.2953H141.419V12.9215H133.921V17.2606H130.623V5.42359C130.623 3.34084 131.456 2.16061 133.921 2.16061H144.682ZM127.325 5.42359V13.6158C127.325 16.2192 125.868 17.2953 124.028 17.2953H113.649V2.16061H124.062C126.839 2.16061 127.325 3.93095 127.325 5.42359ZM123.993 6.32612C123.993 5.49302 123.472 4.93762 122.605 4.93762H116.946V14.3795H122.605C123.889 14.31 123.993 13.5464 123.993 12.9215V6.32612ZM46.688 2.16061H49.9857V8.13118H57.3448V2.16061H60.6425V17.2606H57.3448V11.0818H49.9857V17.2606H46.688V2.16061ZM66.2659 2.16061L70.362 8.33946L74.4234 2.16061H78.4154L72.0282 11.8107V17.2606H68.7305V11.8107L62.274 2.16061H66.2659ZM96.8825 2.16061H107.47C108.962 2.16061 110.455 2.36888 110.386 5.42359V17.2606H107.088V6.49969C107.088 5.21532 106.949 4.93762 105.908 4.93762H100.145V17.2953H96.8478V2.16061H96.8825ZM151.277 17.2606H147.979V2.16061H151.277V17.2606ZM80.0816 17.2606H90.6689C92.7864 17.2606 93.6542 16.6358 93.5848 13.6158V2.16061H90.2871V12.9562C90.2871 14.2406 90.1135 14.4142 89.1068 14.4142H83.3445V2.16061H80.0468V17.2606H80.0816ZM33.3583 3.02842C32.4211 2.54244 31.4144 2.12589 30.4078 1.74405C25.8604 0.181985 20.5147 -0.373417 15.4466 0.25141C10.7604 0.910951 6.21305 2.02176 2.67236 5.25003C0.971444 6.84681 -0.0352228 9.20727 0.797881 11.4983C1.87397 14.2753 4.75512 16.1151 7.35857 17.1912C14.9954 20.2806 25.4091 20.1765 32.8029 16.6358C35.337 15.3514 38.1834 13.2339 38.5305 10.1792C38.8082 6.88153 35.9271 4.41693 33.3583 3.02842ZM16.245 4.3475C16.8698 3.09785 18.0154 1.63992 19.5774 1.6052C22.9793 1.57049 26.1381 2.09118 29.1928 2.92428C29.3664 3.02842 29.5747 3.06313 29.7135 3.2367C29.8176 3.44497 29.6094 3.58382 29.5052 3.72267C27.0059 5.66658 24.1595 6.77739 21.2089 7.71463C19.7163 8.06176 18.2236 8.72129 16.5574 8.37417C16.1756 8.27003 15.8285 8.02704 15.6202 7.6452C15.2036 6.49969 15.759 5.31946 16.245 4.3475ZM6.14363 14.5183C5.76179 14.8654 5.37995 14.4142 5.03282 14.2406C3.26248 13.0604 1.6657 11.1859 2.11696 8.96428C2.84593 6.08313 5.83121 4.52107 8.33052 3.47969C9.78846 2.92428 11.3505 2.47302 12.9473 2.23003C13.1209 2.23003 13.3291 2.19532 13.4333 2.36888L13.3986 2.54244C10.205 6.15256 8.12225 10.3528 6.14363 14.5183ZM22.3544 15.9068C21.6255 17.0176 20.4452 17.9896 18.9873 17.8507C15.759 17.816 12.6002 17.2953 9.68432 16.4275C9.54547 16.3928 9.40662 16.3234 9.33719 16.1845C9.26777 16.011 9.3719 15.8721 9.47604 15.7332C12.1489 13.5811 15.3078 12.5744 18.4666 11.533C19.6468 11.1859 20.8965 10.8388 22.2156 11.0123C22.771 11.047 23.2917 11.4289 23.4999 11.9496C23.7776 13.4422 23.014 14.6919 22.3544 15.9068ZM36.899 10.4916C36.1353 13.4769 32.9071 15.0737 30.3036 16.0804C28.8804 16.5664 27.4572 17.0523 25.9298 17.1912C25.8257 17.1912 25.6868 17.1912 25.6521 17.0523L25.6868 16.8788C27.8737 14.4142 29.5399 11.6372 30.9979 8.82543C31.6574 7.54107 32.317 6.2567 32.8724 4.97233C32.9418 4.86819 33.0459 4.83348 33.1501 4.79877C33.6708 4.83348 34.0526 5.25003 34.5039 5.56244C35.9965 6.77739 37.3503 8.47831 36.899 10.4916Z" fill="#032D5D"/>
</svg>
